
<svg width="483" height="457" viewBox="0 0 483 457" fill="none" xmlns="http://www.w3.org/2000/svg">
<g filter="url(#filter0_d_36_477)">
<path d="M479.704 231.4C482.37 185.728 466.794 140.238 441.862 101.848C420.72 69.2769 385.543 22.4042 348.25 7.16278C301.078 -12.1239 257.461 19.4551 212.014 25.6926C171.375 31.2777 129.247 13.6352 89.5497 23.9962C61.1159 31.4343 37.6475 52.8871 23.3784 78.5418C9.10921 104.196 3.22906 133.792 1.53035 163.1C-1.76253 219.734 10.3636 277.046 35.5307 327.885C48.1012 353.279 65.6893 373.166 81.3436 396.133C97.3115 419.543 108.235 439.639 137.27 449.399C163.039 458.064 192.674 454.332 215.489 439.534C235.9 426.302 250.248 405.398 270.11 391.357C306.828 365.389 355.542 367.868 396.964 354.454C449.729 337.359 476.568 284.902 479.704 231.4V231.4Z" fill="url(#paint0_linear_36_477)"/>
</g>
<defs>
<filter id="filter0_d_36_477" x="0" y="0" width="483" height="457" filterUnits="userSpaceOnUse" color-interpolation-filters="sRGB">
<feFlood flood-opacity="0" result="BackgroundImageFix"/>
<feColorMatrix in="SourceAlpha" type="matrix" values="0 0 0 0 0 0 0 0 0 0 0 0 0 0 0 0 0 0 127 0" result="hardAlpha"/>
<feOffset dx="1" dy="1"/>
<feGaussianBlur stdDeviation="1"/>
<feColorMatrix type="matrix" values="0 0 0 0 0 0 0 0 0 0 0 0 0 0 0 0 0 0 0.15 0"/>
<feBlend mode="normal" in2="BackgroundImageFix" result="effect1_dropShadow_36_477"/>
<feBlend mode="normal" in="SourceGraphic" in2="effect1_dropShadow_36_477" result="shape"/>
</filter>
<linearGradient id="paint0_linear_36_477" x1="0.981537" y1="227.485" x2="479.992" y2="227.485" gradientUnits="userSpaceOnUse">
<stop stop-color="#3D2DB3"/>
<stop offset="0.17" stop-color="#4430B7"/>
<stop offset="0.43" stop-color="#583BC3"/>
<stop offset="0.75" stop-color="#7A4DD7"/>
<stop offset="0.99" stop-color="#995EEA"/>
</linearGradient>
</defs>
</svg>
